<svg width="32.000000" height="32.000000" viewBox="0 0 32 32" fill="none" xmlns="http://www.w3.org/2000/svg" xmlns:xlink="http://www.w3.org/1999/xlink">
	<desc>
			Created with Pixso.
	</desc>
	<defs>
		<clipPath id="clip2_1143">
			<rect id="symbols-2 1" width="32.000000" height="32.000000" fill="white" fill-opacity="0"/>
		</clipPath>
	</defs>
	<rect id="symbols-2 1" width="32.000000" height="32.000000" fill="#E9ECE0" fill-opacity="0"/>
	<g clip-path="url(#clip2_1143)">
		<path id="Vector" d="M5.85297 22.2019C6.18695 22.0349 6.83496 21.7119 6.83496 20.5608C6.83496 19.7349 6.33295 18.5059 4.36798 18.5059L0.474976 18.5059L0.474976 26.5188L3.86798 26.5188C5.50897 26.5188 5.94397 26.2397 6.401 25.7908C6.823 25.3809 7.091 24.7759 7.091 24.1428C7.091 23.3499 6.83496 22.5688 5.85297 22.2019ZM2.08295 19.8928L4.00299 19.8928C4.76099 19.8928 5.22998 20.0928 5.22998 20.751C5.22998 21.3889 4.70697 21.6448 4.04596 21.6448L2.08295 21.6448L2.08295 19.8928ZM4.13397 25.1348L2.08295 25.1348L2.08295 22.9919L4.21399 22.9919C4.81799 22.9919 5.41895 23.2629 5.41895 23.9629C5.41699 24.7759 4.948 25.1348 4.13397 25.1348Z" fill="#E9ECE0" fill-opacity="1.000000" fill-rule="nonzero"/>
		<path id="Vector" d="M0.476074 27.7881L0.476074 28.5161L1.71606 28.5161L1.71606 31.8931L2.57104 31.8931L2.57104 28.5161L3.81409 28.5161L3.81409 27.7881L0.476074 27.7881Z" fill="#E9ECE0" fill-opacity="1.000000" fill-rule="nonzero"/>
		<path id="Vector" d="M28.0659 21.7869L31.3359 18.5049L29.1719 18.5049L26.114 21.762L26.114 18.5049L24.4399 18.5049L24.4399 26.5159L26.114 26.5159L26.114 23.8049L26.895 23.001L29.371 26.5159L31.525 26.5159L28.0659 21.7869Z" fill="#E9ECE0" fill-opacity="1.000000" fill-rule="nonzero"/>
		<path id="Vector" d="M12.361 18.5049L10.431 18.5049L7.57703 26.5168L9.33905 26.5168L9.896 24.8669L12.853 24.8669L13.367 26.5159L15.185 26.5159L12.361 18.5049ZM10.342 23.481L11.369 20.313L11.392 20.313L12.384 23.481L10.342 23.481Z" fill="#E9ECE0" fill-opacity="1.000000" fill-rule="nonzero"/>
		<path id="Vector" d="M19.829 2.80493C19.327 2.21191 18.774 1.65894 18.124 1.17993C17.802 0.937988 17.458 0.715088 17.0811 0.514893C16.701 0.319092 16.312 0.129883 15.847 0C15.855 0.48291 15.939 0.907959 16.038 1.32397C16.132 1.72803 16.259 2.10693 16.407 2.47095C16.053 2.57495 15.623 2.72095 15.139 2.90894C14.826 3.04907 14.483 3.17505 14.137 3.36206C13.786 3.53003 13.4301 3.73389 13.069 3.96191C12.702 4.16895 12.36 4.46289 12.001 4.71704C11.674 5.02808 11.315 5.29712 11.024 5.6499C10.723 5.98804 10.429 6.32593 10.202 6.70996C10.087 6.89697 9.95404 7.07007 9.85803 7.26099C9.76605 7.45508 9.67804 7.64795 9.59204 7.83594C9.39703 8.19995 9.30804 8.59204 9.20605 8.94897C9.08502 9.30298 9.04205 9.6499 9.00903 9.96997C8.98206 10.2891 8.91504 10.571 8.93103 10.8311C8.93903 11.0869 8.94501 11.3091 8.95105 11.4929C8.96204 11.856 8.96503 12.063 8.96503 12.063C8.96503 12.063 9.00403 11.8579 9.07001 11.501C9.10303 11.324 9.14404 11.1111 9.19104 10.865C9.22803 10.6201 9.35504 10.3601 9.44305 10.073C9.53705 9.78589 9.646 9.47998 9.82605 9.18604C9.99005 8.88696 10.139 8.56396 10.381 8.28491C10.4901 8.14209 10.6021 7.9939 10.713 7.84692C10.83 7.7041 10.98 7.58105 11.109 7.44702C11.363 7.16992 11.673 6.94604 11.98 6.72412C12.273 6.49097 12.63 6.33398 12.939 6.14307C13.291 6.00195 13.601 5.82593 13.947 5.72412C14.277 5.604 14.6021 5.50293 14.92 5.43091C15.229 5.34106 15.54 5.30103 15.811 5.24292C15.985 5.21802 16.145 5.19702 16.299 5.17798C16.281 5.22412 16.262 5.26807 16.246 5.31494C16.088 5.74805 15.965 6.20288 15.879 6.68188C15.84 6.92505 15.808 7.1709 15.783 7.42212C15.763 7.677 15.759 7.94092 15.777 8.21899C16.038 8.1189 16.275 8.0061 16.5 7.88306C16.717 7.7561 16.9301 7.62402 17.1331 7.48804C17.536 7.21094 17.899 6.90991 18.2271 6.58789C18.8911 5.94604 19.44 5.229 19.901 4.45801L19.96 4.36011C20.243 3.8811 20.21 3.25391 19.829 2.80493Z" fill="#E9ECE0" fill-opacity="1.000000" fill-rule="nonzero"/>
		<path id="Vector" d="M7.57794 30.9651C7.57794 30.1992 7.39392 30.073 7.05695 29.925C7.46295 29.7881 7.69196 29.4011 7.69196 28.946C7.69196 28.592 7.49298 27.7871 6.40094 27.7871L4.32495 27.7871L4.32495 31.8901L5.16693 31.8901L5.16693 30.2852L6.05194 30.2852C6.68695 30.2852 6.72192 30.5032 6.72192 31.061C6.72192 31.4832 6.75494 31.697 6.81195 31.8892L7.76093 31.8892L7.76093 31.7822C7.57794 31.7141 7.57794 31.5642 7.57794 30.9651ZM6.16895 29.5962L5.16595 29.5962L5.16595 28.4961L6.23395 28.4961C6.73596 28.4961 6.83392 28.8142 6.83392 29.0332C6.83295 29.437 6.61694 29.5962 6.16895 29.5962Z" fill="#E9ECE0" fill-opacity="1.000000" fill-rule="nonzero"/>
		<path id="Vector" d="M23.3389 28.5161L23.3389 27.7881L20.4189 27.7881L20.4189 31.894L21.2769 31.894L21.2769 30.168L23.0829 30.168L23.0829 29.4421L21.2769 29.4421L21.2769 28.5161L23.3389 28.5161Z" fill="#E9ECE0" fill-opacity="1.000000" fill-rule="nonzero"/>
		<path id="Vector" d="M24.7551 31.165L24.7551 30.105L26.7551 30.105L26.7551 29.3792L24.7551 29.3792L24.7551 28.5171L26.934 28.5171L26.934 27.79L23.915 27.79L23.915 31.8931L27.03 31.8931L27.03 31.165L24.7551 31.165Z" fill="#E9ECE0" fill-opacity="1.000000" fill-rule="nonzero"/>
		<path id="Vector" d="M18.691 29.5532L17.693 29.3071C17.521 29.2661 17.257 29.1973 17.257 28.8772C17.257 28.5061 17.648 28.3872 17.972 28.3872C18.722 28.3872 18.791 28.8203 18.814 29.0032L19.634 29.0032C19.628 28.5002 19.292 27.6782 18.034 27.6782C16.702 27.6782 16.457 28.4832 16.457 28.9402C16.457 29.8442 17.096 29.9951 17.76 30.1472L18.199 30.2512C18.632 30.3562 18.942 30.4402 18.942 30.7622C18.942 31.1912 18.489 31.2913 18.086 31.2913C17.336 31.2913 17.221 30.8572 17.215 30.6282L16.395 30.6282C16.395 31.1392 16.65 32.0002 18.148 32.0002C18.506 32.0002 19.765 31.8882 19.765 30.6572C19.764 29.9202 19.25 29.6892 18.691 29.5532Z" fill="#E9ECE0" fill-opacity="1.000000" fill-rule="nonzero"/>
		<path id="Vector" d="M30.9819 30.9651C30.9819 30.1992 30.796 30.073 30.4609 29.925C30.8649 29.7881 31.098 29.4011 31.098 28.946C31.098 28.592 30.897 27.7871 29.8049 27.7871L27.731 27.7871L27.731 31.8901L28.5729 31.8901L28.5729 30.2852L29.4579 30.2852C30.0909 30.2852 30.1279 30.5032 30.1279 31.061C30.1279 31.4832 30.1609 31.697 30.2189 31.8892L31.165 31.8892L31.165 31.7822C30.9819 31.7141 30.9819 31.5642 30.9819 30.9651ZM29.5759 29.5962L28.572 29.5962L28.572 28.4961L29.6379 28.4961C30.142 28.4961 30.2399 28.8142 30.2399 29.0332C30.2399 29.437 30.0229 29.5962 29.5759 29.5962Z" fill="#E9ECE0" fill-opacity="1.000000" fill-rule="nonzero"/>
		<path id="Vector" d="M21.145 18.5078L21.145 24.0857L21.1239 24.0857L17.9429 18.5078L16.1799 18.5078L16.1799 26.5198L17.7419 26.5198L17.744 20.8079L17.765 20.8079L21.0349 26.5208L22.7069 26.5208L22.7069 18.5078L21.145 18.5078Z" fill="#E9ECE0" fill-opacity="1.000000" fill-rule="nonzero"/>
		<path id="Vector" d="M10.474 27.7881L9.48303 27.7881L8.02002 31.8911L8.92401 31.8911L9.20905 31.0442L10.723 31.0442L10.987 31.8911L11.919 31.8911L10.474 27.7881ZM9.43903 30.3362L9.966 28.7141L9.974 28.7141L10.486 30.3362L9.43903 30.3362Z" fill="#E9ECE0" fill-opacity="1.000000" fill-rule="nonzero"/>
		<path id="Vector" d="M14.976 27.7881L14.975 30.644L14.965 30.644L13.334 27.7881L12.432 27.7881L12.432 31.8911L13.231 31.8911L13.231 28.9641L13.244 28.9641L14.918 31.8911L15.777 31.8911L15.777 27.7881L14.976 27.7881Z" fill="#E9ECE0" fill-opacity="1.000000" fill-rule="nonzero"/>
		<path id="Vector" d="M21.957 5.65991C21.938 5.29785 21.922 5.0918 21.922 5.0918C21.922 5.0918 21.893 5.29688 21.832 5.65576C21.803 5.83276 21.77 6.04785 21.731 6.29468C21.701 6.54077 21.582 6.80371 21.502 7.09375C21.419 7.38379 21.32 7.69189 21.148 7.9917C20.994 8.2959 20.855 8.62183 20.621 8.90869C20.517 9.05591 20.41 9.20581 20.304 9.35791C20.189 9.50269 20.045 9.63086 19.916 9.7688C19.672 10.0518 19.369 10.2869 19.068 10.5168C18.785 10.7588 18.431 10.9248 18.127 11.1257C17.781 11.2769 17.476 11.4629 17.133 11.5737C16.808 11.7048 16.485 11.8147 16.169 11.8958C15.864 11.9958 15.556 12.0447 15.286 12.1099C15.113 12.1409 14.952 12.1667 14.8 12.1897C14.814 12.1428 14.833 12.0989 14.849 12.0518C14.993 11.6128 15.103 11.1548 15.175 10.6738C15.206 10.4297 15.229 10.1829 15.247 9.93091C15.26 9.67578 15.256 9.41089 15.231 9.13477C14.973 9.24072 14.739 9.36182 14.518 9.4917C14.303 9.62476 14.098 9.7627 13.897 9.90479C13.505 10.1938 13.151 10.5049 12.833 10.8379C12.189 11.4988 11.662 12.2317 11.224 13.0168L11.167 13.1147C10.898 13.6028 10.95 14.2278 11.345 14.6658C11.865 15.2427 12.435 15.7798 13.097 16.2388C13.425 16.4717 13.776 16.6838 14.161 16.8718C14.544 17.0579 14.938 17.2358 15.409 17.3508C15.384 16.8699 15.286 16.4478 15.179 16.0349C15.072 15.6338 14.935 15.2578 14.775 14.8987C15.127 14.7837 15.55 14.6257 16.029 14.4238C16.337 14.2759 16.676 14.1377 17.017 13.9409C17.361 13.7639 17.713 13.5488 18.062 13.3098C18.422 13.0918 18.756 12.7878 19.109 12.5227C19.426 12.2039 19.777 11.9219 20.058 11.5618C20.349 11.2148 20.631 10.8699 20.847 10.4788C20.957 10.2878 21.082 10.1108 21.174 9.91675C21.258 9.71973 21.342 9.5249 21.422 9.33374C21.606 8.96387 21.684 8.56885 21.776 8.20972C21.884 7.85376 21.92 7.50488 21.942 7.18481C21.963 6.86572 22.018 6.58081 21.996 6.32178C21.979 6.06689 21.967 5.84375 21.957 5.65991Z" fill="#E9ECE0" fill-opacity="1.000000" fill-rule="nonzero"/>
	</g>
</svg>
