<svg width="48.427979" height="48.427979" viewBox="0 0 48.428 48.428" fill="none" xmlns="http://www.w3.org/2000/svg" xmlns:xlink="http://www.w3.org/1999/xlink">
	<desc>
			Created with Pixso.
	</desc>
	<defs>
		<clipPath id="clip2_1202">
			<rect id="symbol 1" width="48.428001" height="48.428001" fill="white" fill-opacity="0"/>
		</clipPath>
	</defs>
	<rect id="symbol 1" width="48.428001" height="48.428001" fill="#E9ECE0" fill-opacity="0"/>
	<g clip-path="url(#clip2_1202)">
		<path id="Vector" d="M33.933 9.71582C30.192 9.7168 26.782 11.1348 24.212 13.4639C21.64 11.1379 18.232 9.71875 14.495 9.71875C14.464 9.71875 14.432 9.71875 14.402 9.71875C6.44397 9.77075 0 16.2449 0 24.2139C0 32.2148 6.49402 38.7078 14.494 38.7078C18.231 38.7078 21.639 37.2908 24.21 34.9629C23.673 34.4778 23.187 33.9409 22.728 33.3789L25.721 33.3789C25.27 33.9319 24.778 34.4497 24.249 34.9319L24.247 34.9319C24.235 34.9448 24.222 34.9529 24.21 34.9639C26.783 37.2937 30.195 38.7139 33.938 38.7129C41.943 38.7097 48.43 32.2178 48.428 24.2139C48.428 24.2109 48.428 24.2087 48.428 24.2068C48.429 16.2029 41.938 9.71387 33.933 9.71582ZM22.894 14.9609L25.649 14.9609C26.055 15.4529 26.432 15.9707 26.774 16.5129L21.859 16.5129C22.176 15.9949 22.524 15.4619 22.894 14.9609ZM21.003 18.0349L27.61 18.0349C27.845 18.5369 28.053 19.0559 28.235 19.5879L20.22 19.5879C20.3 19.4377 20.58 18.8337 21.003 18.0349ZM5.91699 27.9058L6.79602 22.3638L4.81299 27.9058L3.75 27.9058L3.612 22.3638L2.67297 27.9058L1.18402 27.9058L2.41803 20.5559L4.66998 20.5559L4.74902 25.0659L6.27002 20.5559L8.71301 20.5559L7.49597 27.9058L5.91699 27.9058ZM11.182 27.8938L11.233 27.3069C11.209 27.3098 10.739 28.0159 9.65002 28.0159C9.08002 28.0159 8.15997 27.7048 8.15997 26.3528C8.15997 24.6338 9.56201 24.0637 10.897 24.0637C11.107 24.0637 11.56 24.1018 11.56 24.1018C11.56 24.1018 11.611 23.9968 11.611 23.7129C11.611 23.2458 11.191 23.1819 10.616 23.1819C9.60303 23.1819 8.93402 23.4529 8.93402 23.4529L9.15802 22.1228C9.15802 22.1228 9.96997 21.7827 11.027 21.7827C11.574 21.7827 13.147 21.8408 13.147 23.6438L12.541 27.8938L11.182 27.8938ZM16.925 26.0217C16.925 28.0728 14.938 27.9849 14.591 27.9849C13.296 27.9849 12.896 27.8059 12.859 27.7959L13.065 26.4458C13.067 26.4338 13.715 26.6809 14.436 26.6809C14.852 26.6809 15.392 26.6399 15.392 26.1428C15.392 25.3989 13.46 25.5769 13.46 23.8098C13.46 22.2507 14.618 21.7949 15.76 21.7949C16.642 21.7949 17.184 21.9158 17.184 21.9158L16.989 23.2778C16.989 23.2778 16.152 23.2087 15.935 23.2087C15.386 23.2087 15.087 23.3289 15.087 23.7129C15.086 24.4849 16.925 24.1069 16.925 26.0217ZM19.311 26.5598C19.448 26.5598 19.603 26.5129 19.709 26.5129L19.516 27.8237C19.361 27.8667 18.922 28.0227 18.359 28.0269C17.64 28.0327 17.129 27.6309 17.129 26.7188C17.129 26.1069 18.006 21.0637 18.04 21.0308L19.583 21.0308L19.426 21.9329L20.196 21.9329L19.999 23.3857L19.182 23.3857L18.748 26.0627C18.715 26.2759 18.774 26.5598 19.311 26.5598ZM22.705 21.7629C24.399 21.7629 24.906 23.0029 24.906 24.0198C24.906 24.4268 24.702 25.4268 24.702 25.4268L21.566 25.4268C21.566 25.4268 21.276 26.6619 22.933 26.6619C23.71 26.6619 24.572 26.2817 24.572 26.2817L24.3 27.7688C24.3 27.7688 23.802 28.0227 22.67 28.0227C21.443 28.0227 20.004 27.5039 20.004 25.3237C20.005 23.4348 21.153 21.7629 22.705 21.7629ZM26.792 31.8857L21.65 31.8857C21.337 31.3857 21.045 30.8728 20.794 30.3337L27.637 30.3337C27.385 30.8699 27.103 31.3879 26.792 31.8857ZM26.447 27.9167L24.863 27.9167L25.826 21.9348L27.263 21.9348L27.125 22.8018C27.125 22.8018 27.637 21.8589 28.328 21.8589C28.529 21.8589 28.626 21.8789 28.626 21.8789C28.421 22.2969 28.24 22.6799 28.052 23.6687C26.98 23.2888 26.898 25.3618 26.447 27.9167ZM32.482 27.8237C32.482 27.8237 31.652 28.0359 31.132 28.0359C29.29 28.0359 28.355 26.7649 28.355 24.8398C28.355 21.9368 30.088 20.3909 31.869 20.3909C32.674 20.3909 33.607 20.7688 33.607 20.7688L33.355 22.4038C33.355 22.4038 32.724 21.9629 31.939 21.9629C30.889 21.9629 29.947 22.9648 29.947 24.7859C29.947 25.6829 30.386 26.5188 31.482 26.5188C32.003 26.5188 32.758 26.1399 32.758 26.1399L32.482 27.8237ZM36.197 27.8967L36.249 27.3059C36.224 27.3088 35.754 28.0149 34.666 28.0149C34.096 28.0149 33.176 27.7039 33.176 26.3518C33.176 24.6328 34.578 24.0627 35.912 24.0627C36.122 24.0627 36.576 24.1008 36.576 24.1008C36.576 24.1008 36.628 23.9968 36.628 23.7129C36.628 23.2458 36.208 23.1819 35.632 23.1819C34.619 23.1819 33.951 23.4529 33.951 23.4529L34.175 22.1228C34.175 22.1228 34.987 21.7827 36.045 21.7827C36.591 21.7827 38.165 21.8408 38.164 23.6438L37.558 27.8938C37.557 27.8967 36.197 27.8967 36.197 27.8967ZM39.404 27.9167L37.82 27.9167L38.783 21.9348L40.221 21.9348L40.083 22.8018C40.083 22.8018 40.596 21.8589 41.287 21.8589C41.488 21.8589 41.584 21.8789 41.584 21.8789C41.38 22.2969 41.197 22.6799 41.01 23.6687C39.937 23.2888 39.855 25.3618 39.404 27.9167ZM44.133 27.9009L44.2 27.3499C44.2 27.3499 43.688 27.9958 42.762 27.9958C41.479 27.9958 40.85 26.7568 40.85 25.4907C40.85 23.5327 42.028 21.8259 43.442 21.8259C44.352 21.8279 44.933 22.6309 44.933 22.6309L45.267 20.5659L46.814 20.5627L45.634 27.9009L44.133 27.9009ZM47.185 27.6938C47.144 27.7678 47.086 27.8247 47.012 27.8689C46.939 27.9099 46.861 27.9309 46.779 27.9309C46.699 27.9309 46.622 27.9099 46.548 27.8689C46.474 27.8247 46.416 27.7678 46.375 27.6938C46.333 27.6189 46.313 27.5427 46.313 27.4619C46.313 27.3799 46.334 27.3018 46.375 27.2278C46.416 27.1538 46.477 27.0938 46.55 27.0537C46.626 27.0129 46.701 26.9917 46.779 26.9917C46.859 26.9917 46.935 27.0129 47.009 27.0537C47.085 27.0947 47.143 27.1519 47.185 27.2278C47.228 27.3027 47.247 27.3809 47.247 27.4619C47.247 27.5427 47.227 27.6199 47.185 27.6938Z" fill="#E9ECE0" fill-opacity="1.000000" fill-rule="nonzero"/>
		<path id="Vector" d="M47.061 32.1169C47.051 32.1099 47.0421 32.0989 47.0261 32.093C47.0101 32.0869 46.985 32.084 46.946 32.084L46.8521 32.084L46.8521 32.2339L46.952 32.2339C46.999 32.2339 47.03 32.23 47.048 32.2129C47.0651 32.199 47.0731 32.1819 47.0731 32.158C47.0731 32.1421 47.069 32.1311 47.061 32.1169Z" fill="#E9ECE0" fill-opacity="1.000000" fill-rule="nonzero"/>
		<path id="Vector" d="M47.384 32.0271C47.341 31.949 47.282 31.894 47.207 31.853C47.132 31.812 47.056 31.791 46.978 31.791C46.898 31.791 46.822 31.812 46.748 31.853C46.674 31.894 46.613 31.9509 46.572 32.0271C46.529 32.1011 46.51 32.179 46.51 32.259C46.51 32.3391 46.531 32.418 46.572 32.491C46.615 32.5649 46.673 32.625 46.746 32.666C46.82 32.707 46.898 32.728 46.98 32.728C47.06 32.728 47.138 32.707 47.211 32.666C47.284 32.625 47.343 32.5649 47.384 32.491C47.426 32.418 47.446 32.3401 47.446 32.259C47.446 32.178 47.425 32.1001 47.384 32.0271ZM47.096 32.519L47.052 32.4399C47.017 32.3779 46.988 32.3369 46.966 32.321C46.952 32.311 46.93 32.303 46.902 32.303L46.855 32.303L46.855 32.5181L46.773 32.5181L46.773 32.0129L46.947 32.0129C47.007 32.0129 47.05 32.0181 47.074 32.0281C47.101 32.0381 47.124 32.052 47.138 32.0769C47.154 32.1001 47.161 32.125 47.161 32.1511C47.161 32.188 47.147 32.219 47.122 32.248C47.096 32.2739 47.06 32.291 47.017 32.2939C47.035 32.3 47.049 32.3101 47.06 32.321C47.081 32.3411 47.105 32.374 47.135 32.4199L47.197 32.519L47.096 32.519Z" fill="#E9ECE0" fill-opacity="1.000000" fill-rule="nonzero"/>
		<path id="Vector" d="M11.022 25.2109C9.89099 25.2109 9.66199 25.719 9.66199 26.1418C9.66199 26.3599 9.78699 26.7239 10.266 26.7239C11.195 26.7239 11.388 25.5059 11.358 25.2468C11.314 25.238 11.286 25.2119 11.022 25.2109Z" fill="#E9ECE0" fill-opacity="1.000000" fill-rule="nonzero"/>
		<path id="Vector" d="M22.711 23.144C21.87 23.144 21.708 24.1011 21.708 24.2021L23.421 24.2021C23.421 24.125 23.582 23.144 22.711 23.144Z" fill="#E9ECE0" fill-opacity="1.000000" fill-rule="nonzero"/>
		<path id="Vector" d="M43.709 23.311C43.03 23.311 42.493 24.0991 42.494 25.2961C42.494 26.0261 42.754 26.4941 43.31 26.4941C44.146 26.4941 44.549 25.4031 44.549 24.5901C44.549 23.6931 44.264 23.311 43.709 23.311Z" fill="#E9ECE0" fill-opacity="1.000000" fill-rule="nonzero"/>
		<path id="Vector" d="M47.1149 27.2678C47.08 27.2058 47.0309 27.1577 46.9689 27.1228C46.9069 27.0879 46.8439 27.0708 46.778 27.0708C46.7139 27.0708 46.6489 27.0889 46.5869 27.1228C46.525 27.1548 46.476 27.2048 46.4409 27.2678C46.4059 27.3308 46.3879 27.3977 46.3879 27.4629C46.3879 27.5298 46.4059 27.5957 46.439 27.6567C46.476 27.7188 46.5229 27.7659 46.585 27.8027C46.6469 27.8369 46.7109 27.8567 46.778 27.8567C46.8449 27.8567 46.9109 27.8369 46.9709 27.8027C47.033 27.7678 47.0809 27.7197 47.1169 27.6567C47.1519 27.5947 47.168 27.5298 47.168 27.4629C47.168 27.3967 47.15 27.3308 47.1149 27.2678ZM46.8979 27.7197L46.853 27.6418C46.8179 27.5789 46.7899 27.5388 46.7689 27.5237C46.752 27.5107 46.7319 27.5049 46.7029 27.5049L46.6569 27.5049L46.6569 27.7188L46.5729 27.7188L46.5729 27.2148L46.7479 27.2148C46.8069 27.2148 46.851 27.2197 46.8759 27.2307C46.9009 27.2397 46.9229 27.2568 46.9399 27.2788C46.9569 27.3008 46.963 27.3257 46.963 27.3528C46.963 27.3899 46.9489 27.4209 46.9229 27.4487C46.8969 27.4778 46.861 27.4897 46.819 27.4949C46.8389 27.5027 46.8519 27.5117 46.8619 27.5208C46.8829 27.5417 46.9069 27.5718 46.9359 27.6199L46.9979 27.7197C46.9979 27.7197 46.8979 27.7197 46.8979 27.7197Z" fill="#E9ECE0" fill-opacity="1.000000" fill-rule="nonzero"/>
		<path id="Vector" d="M36.0389 25.2109C34.908 25.2109 34.679 25.719 34.679 26.1418C34.679 26.3599 34.803 26.7239 35.283 26.7239C36.212 26.7239 36.4039 25.5059 36.3749 25.2468C36.33 25.238 36.3019 25.2119 36.0389 25.2109Z" fill="#E9ECE0" fill-opacity="1.000000" fill-rule="nonzero"/>
		<path id="Vector" d="M46.864 27.3181C46.856 27.3081 46.845 27.3003 46.83 27.2932C46.813 27.2881 46.788 27.2832 46.748 27.2832L46.748 27.2842L46.657 27.2842L46.657 27.4363L46.756 27.4363C46.803 27.4363 46.834 27.4302 46.853 27.4153C46.868 27.4001 46.877 27.3811 46.877 27.3591C46.877 27.3423 46.873 27.3323 46.864 27.3181Z" fill="#E9ECE0" fill-opacity="1.000000" fill-rule="nonzero"/>
	</g>
</svg>
