<svg width="50.408997" height="50.408936" viewBox="0 0 50.409 50.4089" fill="none" xmlns="http://www.w3.org/2000/svg" xmlns:xlink="http://www.w3.org/1999/xlink">
	<desc>
			Created with Pixso.
	</desc>
	<defs>
		<clipPath id="clip2_1230">
			<rect id="paypal-logo 1" width="50.409000" height="50.409000" fill="white" fill-opacity="0"/>
		</clipPath>
	</defs>
	<rect id="paypal-logo 1" width="50.409000" height="50.409000" fill="#E9ECE0" fill-opacity="0"/>
	<g clip-path="url(#clip2_1230)">
		<path id="Vector" d="M9.03491 20.604C8.87 20.2729 8.60889 20 8.28491 19.7949C7.9469 19.5879 7.54797 19.4431 7.09192 19.3569C6.62793 19.2729 6.09192 19.2351 5.47095 19.229L2.60388 19.231C2.30591 19.2351 2.01392 19.467 1.94397 19.7549L0.0148926 28.157C-0.0550537 28.4409 0.131958 28.679 0.429932 28.679L1.80298 28.679C2.10095 28.679 2.396 28.448 2.46191 28.157L2.93298 26.1169C2.99597 25.833 3.28992 25.5959 3.59094 25.5959L3.98389 25.5959C5.66296 25.594 6.96289 25.251 7.89697 24.564C8.83594 23.876 9.29895 22.967 9.29895 21.8411C9.29797 21.3479 9.21692 20.9341 9.03491 20.604ZM6.07397 23.3491C5.65894 23.6531 5.08191 23.8049 4.33789 23.8049L4.00195 23.8049C3.70288 23.8049 3.5199 23.5691 3.58496 23.281L3.99792 21.4971C4.05591 21.2109 4.35693 20.9741 4.65198 20.9761L5.10193 20.9729C5.62695 20.9729 6.02795 21.064 6.2959 21.24C6.56091 21.4141 6.69397 21.6909 6.69189 22.0581C6.69995 22.616 6.48694 23.0449 6.07397 23.3491Z" fill="#E9ECE0" fill-opacity="1.000000" fill-rule="nonzero"/>
		<path id="Vector" d="M48.175 19.887L48.089 19.9128L47.974 19.929L47.8329 19.9067L47.761 19.8369L47.728 19.7268L47.726 19.5618L47.726 18.9509L48.185 18.9509L48.185 18.762L47.726 18.762L47.726 18.3809L47.499 18.3809L47.499 18.762L47.345 18.762L47.345 18.9509L47.499 18.9509L47.499 19.6619L47.605 20.0139L47.917 20.126L48.048 20.1147L48.187 20.0879L48.187 19.887L48.175 19.887Z" fill="#E9ECE0" fill-opacity="1.000000" fill-rule="nonzero"/>
		<path id="Vector" d="M50.304 18.8591L49.976 18.7241L49.734 18.7732L49.488 18.9392L49.345 18.78L49.113 18.7251L48.89 18.7742L48.679 18.9102L48.679 18.7622L48.456 18.7622L48.456 20.0972L48.678 20.0972L48.678 19.1001L48.865 18.9841L49.051 18.9382L49.203 18.9651L49.278 19.0422L49.311 19.1702L49.322 19.3352L49.322 20.0981L49.545 20.0981L49.545 19.2441L49.541 19.1731L49.537 19.1082L49.727 18.9871L49.915 18.9402L50.062 18.967L50.142 19.0442L50.17 19.1731L50.185 19.3362L50.185 20.0991L50.409 20.0991L50.409 19.2322L50.304 18.8591Z" fill="#E9ECE0" fill-opacity="1.000000" fill-rule="nonzero"/>
		<path id="Vector" d="M15.656 21.8052C15.1379 21.5132 14.3199 21.3672 13.202 21.3672C12.649 21.3672 12.098 21.4102 11.541 21.4961C11.13 21.5591 11.09 21.5713 10.837 21.6262C10.3149 21.7402 10.233 22.2612 10.233 22.2612L10.0649 22.9521C9.96997 23.3931 10.224 23.3762 10.33 23.3391C10.558 23.2712 10.6849 23.2012 11.151 23.0972C11.5959 22.9961 12.0649 22.9202 12.437 22.9253C12.986 22.9253 13.406 22.9832 13.686 23.1011C13.962 23.2212 14.1 23.4272 14.1 23.7251L14.0759 23.9192L13.8779 24.0413C13.099 24.0901 12.536 24.1621 11.853 24.2612C11.1849 24.3542 10.599 24.5171 10.1119 24.7402C9.58899 24.9702 9.20093 25.2793 8.92993 25.6721C8.66797 26.0671 8.53699 26.5461 8.53699 27.1082C8.53699 27.6372 8.72693 28.0742 9.09595 28.4121C9.46704 28.7441 9.95703 28.9062 10.543 28.9062C10.9139 28.9043 11.2009 28.8752 11.405 28.8262L12.0699 28.5972L12.6329 28.2852L13.151 27.9431L13.158 27.9531L13.106 28.1731L13.103 28.1821L13.103 28.1841C13.047 28.4521 13.209 28.6721 13.47 28.6982L13.475 28.7041L13.499 28.7041L14.552 28.7041L14.75 28.7041L14.7679 28.6963C15.042 28.6643 15.299 28.4441 15.359 28.1821L16.36 23.8491L16.412 23.4961L16.436 23.1653C16.4399 22.5513 16.175 22.0962 15.656 21.8052ZM13.442 26.6772L13.228 26.9592L12.688 27.2383C12.434 27.3413 12.193 27.3931 11.97 27.3931C11.632 27.3931 11.3669 27.3442 11.188 27.2441L10.923 26.7292C10.923 26.4502 10.9869 26.2292 11.124 26.0591L11.7059 25.6631C11.955 25.5791 12.259 25.5083 12.611 25.4592C12.925 25.4202 13.545 25.3491 13.626 25.3472L13.7209 25.5142C13.702 25.6091 13.526 26.3452 13.442 26.6772Z" fill="#E9ECE0" fill-opacity="1.000000" fill-rule="nonzero"/>
		<path id="Vector" d="M40.594 21.811C40.073 21.519 39.256 21.3721 38.141 21.3721C37.588 21.3721 37.0359 21.415 36.481 21.5042C36.069 21.564 36.028 21.5771 35.774 21.6311C35.253 21.7441 35.172 22.2671 35.172 22.2671L35.004 22.957C34.91 23.3979 35.158 23.3782 35.274 23.344C35.503 23.2761 35.626 23.209 36.088 23.1011C36.531 23.001 37.004 22.927 37.377 22.929C37.924 22.929 38.344 22.988 38.623 23.106C38.901 23.2261 39.037 23.4341 39.037 23.729L39.016 23.9221L38.8199 24.0471C38.033 24.094 37.469 24.166 36.793 24.2651C36.127 24.3582 35.539 24.52 35.051 24.7441C34.53 24.9751 34.137 25.2842 33.869 25.678C33.604 26.073 33.475 26.551 33.475 27.1082C33.475 27.6411 33.663 28.0781 34.037 28.4141C34.41 28.7451 34.895 28.9111 35.481 28.9111C35.85 28.907 36.137 28.8831 36.342 28.8301L37.005 28.604L37.573 28.292L38.087 27.946L38.0959 27.957L38.049 28.179L38.0439 28.1831L38.046 28.187C37.984 28.4551 38.147 28.677 38.4109 28.7012L38.413 28.7061L38.437 28.7061C38.61 28.7061 39.208 28.7061 39.493 28.7061L39.687 28.7061L39.708 28.699C39.979 28.666 40.235 28.446 40.292 28.1812L41.296 23.854L41.349 23.499L41.378 23.167C41.379 22.5552 41.117 22.1021 40.594 21.811ZM38.3849 26.6831L38.162 26.968L37.627 27.2451C37.373 27.3472 37.131 27.4001 36.912 27.4001C36.563 27.4001 36.305 27.3501 36.131 27.25L35.863 26.7371C35.863 26.457 35.928 26.238 36.059 26.0652C36.192 25.9021 36.395 25.7681 36.647 25.6702C36.893 25.5862 37.197 25.5181 37.551 25.467C37.863 25.428 38.481 25.355 38.561 25.354L38.658 25.521C38.644 25.616 38.467 26.3491 38.3849 26.6831Z" fill="#E9ECE0" fill-opacity="1.000000" fill-rule="nonzero"/>
		<path id="Vector" d="M33.9691 20.6348C33.7971 20.3018 33.5391 20.0327 33.213 19.8228C32.879 19.6147 32.483 19.4688 32.02 19.3848C31.5651 19.3037 31.022 19.2598 30.405 19.2588L27.5341 19.2607C27.235 19.2659 26.948 19.4978 26.879 19.7827L24.948 28.1887C24.8781 28.4739 25.0701 28.7097 25.3621 28.7097L26.7371 28.7078C27.0291 28.7097 27.328 28.4758 27.397 28.1877L27.8621 26.1467C27.9301 25.8628 28.225 25.6238 28.522 25.6257L28.915 25.6257C30.5961 25.6257 31.899 25.2798 32.837 24.5947C33.764 23.9019 34.233 22.9949 34.233 21.8677C34.228 21.3767 34.143 20.9617 33.9691 20.6348ZM31.0081 23.3838C30.594 23.6819 30.016 23.8337 29.276 23.8337L28.9341 23.8337C28.639 23.8367 28.448 23.5967 28.514 23.3108L28.9301 21.5298C28.9911 21.2449 29.2891 21.0059 29.5861 21.0088L30.031 21.0059C30.5591 21.0088 30.9551 21.0957 31.225 21.2717C31.494 21.4478 31.6211 21.7239 31.624 22.0898C31.6271 22.6477 31.42 23.0779 31.0081 23.3838Z" fill="#E9ECE0" fill-opacity="1.000000" fill-rule="nonzero"/>
		<path id="Vector" d="M45.742 19.8501C45.805 19.563 45.625 19.3301 45.33 19.334L44.1 19.334C43.848 19.334 43.621 19.521 43.51 19.751L43.442 19.8569L43.38 20.1292L41.661 27.9431L41.605 28.1831L41.607 28.189C41.55 28.446 41.708 28.6401 41.952 28.677L41.973 28.7061L43.25 28.7061C43.5 28.7061 43.735 28.5161 43.842 28.282L43.908 28.1821L45.746 19.8511L45.742 19.8501Z" fill="#E9ECE0" fill-opacity="1.000000" fill-rule="nonzero"/>
		<path id="Vector" d="M24.986 21.4717C24.661 21.4758 23.34 21.4717 23.34 21.4717C23.0439 21.4717 22.6639 21.7107 22.476 21.9958C22.476 21.9958 20.51 25.3699 20.319 25.7087L20.0909 25.7058L19.479 22.0188C19.411 21.7288 19.1079 21.4807 18.731 21.4807L17.501 21.4829C17.205 21.4829 17.0229 21.7188 17.09 22.0068C17.09 22.0068 18.0239 27.3218 18.2109 28.5728C18.298 29.2627 18.2 29.3857 18.2 29.3857L16.984 31.5039C16.804 31.7917 16.901 32.0269 17.1959 32.0269L18.6179 32.0249C18.9139 32.0249 19.303 31.7917 19.479 31.5027L24.949 22.2507C24.949 22.2517 25.475 21.4607 24.986 21.4717Z" fill="#E9ECE0" fill-opacity="1.000000" fill-rule="nonzero"/>
	</g>
</svg>
