<svg width="47.833984" height="47.833984" viewBox="0 0 47.834 47.834" fill="none" xmlns="http://www.w3.org/2000/svg" xmlns:xlink="http://www.w3.org/1999/xlink">
	<desc>
			Created with Pixso.
	</desc>
	<defs>
		<clipPath id="clip2_1186">
			<rect id="symbols 1" width="47.834000" height="47.834000" fill="white" fill-opacity="0"/>
		</clipPath>
	</defs>
	<rect id="symbols 1" width="47.834000" height="47.834000" fill="#E9ECE0" fill-opacity="0"/>
	<g clip-path="url(#clip2_1186)">
		<path id="Vector" d="M19.1531 16.7988L16.722 31.0649L20.61 31.0649L23.043 16.7988L19.1531 16.7988Z" fill="#E9ECE0" fill-opacity="1.000000" fill-rule="nonzero"/>
		<path id="Vector" d="M13.462 16.8149L9.65405 26.5439L9.24805 25.075C8.49707 23.3049 6.36505 20.7629 3.86206 19.1611L7.34406 31.0581L11.4581 31.051L17.5811 16.812L13.462 16.8149Z" fill="#E9ECE0" fill-opacity="1.000000" fill-rule="nonzero"/>
		<path id="Vector" d="M7.77197 17.8357C7.54602 16.9668 6.89099 16.7078 6.078 16.6768L0.0499878 16.6768L0 16.9607C4.69098 18.0989 7.79498 20.8408 9.08301 24.1377L7.77197 17.8357Z" fill="#E9ECE0" fill-opacity="1.000000" fill-rule="nonzero"/>
		<path id="Vector" d="M30.923 19.5342C32.1949 19.5142 33.1169 19.7922 33.8329 20.0801L34.184 20.2451L34.71 17.1533C33.9399 16.8643 32.733 16.5542 31.227 16.5542C27.3849 16.5542 24.6769 18.4893 24.6559 21.2622C24.631 23.3113 26.585 24.4551 28.061 25.1382C29.576 25.8381 30.084 26.2832 30.077 26.9082C30.0649 27.8633 28.869 28.3013 27.752 28.3013C26.1949 28.3013 25.368 28.0862 24.0909 27.5542L23.59 27.3262L23.043 30.5193C23.9529 30.9182 25.632 31.2612 27.375 31.2793C31.462 31.2793 34.118 29.3672 34.146 26.4043C34.163 24.7832 33.126 23.5461 30.879 22.5312C29.519 21.8691 28.687 21.4292 28.6949 20.7612C28.6949 20.1682 29.4009 19.5342 30.923 19.5342Z" fill="#E9ECE0" fill-opacity="1.000000" fill-rule="nonzero"/>
		<path id="Vector" d="M44.688 16.8149L41.684 16.8149C40.751 16.8149 40.057 17.0688 39.647 17.999L33.874 31.073L37.957 31.073C37.957 31.073 38.623 29.3149 38.774 28.9299C39.221 28.9299 43.188 28.936 43.7531 28.936C43.869 29.4338 44.2271 31.073 44.2271 31.073L47.834 31.073L44.688 16.8149ZM39.893 26.01C40.213 25.1909 41.442 22.0229 41.442 22.0229C41.421 22.062 41.759 21.198 41.96 20.6609L42.222 21.8909C42.222 21.8909 42.967 25.2969 43.123 26.01L39.893 26.01Z" fill="#E9ECE0" fill-opacity="1.000000" fill-rule="nonzero"/>
	</g>
</svg>
