<svg aria-hidden="true" style="position: absolute; width: 0; height: 0; overflow: hidden;" version="1.1" xmlns="http://www.w3.org/2000/svg" xmlns:xlink="http://www.w3.org/1999/xlink">
<defs>
<symbol id="icon-logo-whit-1" viewBox="0 0 34 32">
<path d="M2.050 29.018v-0.398h-2.050v0.398h0.804v2.522h0.443v-2.522h0.804z"></path>
<path d="M4.787 31.539v-2.919h-0.443v1.246h-1.185v-1.246h-0.443v2.919h0.443v-1.275h1.185v1.275h0.443z"></path>
<path d="M7.581 31.539v-0.398h-1.423v-0.877h1.214v-0.394h-1.214v-0.853h1.423v-0.398h-1.866v2.919h1.866z"></path>
<path d="M11.508 30.407v-0.447h-1.066v0.377h0.623v0.164c0 0.096-0.011 0.18-0.033 0.254s-0.060 0.142-0.115 0.205c-0.057 0.066-0.127 0.116-0.209 0.152s-0.171 0.053-0.267 0.053c-0.087 0-0.168-0.015-0.242-0.045-0.074-0.033-0.137-0.077-0.189-0.131-0.036-0.038-0.066-0.079-0.090-0.123-0.022-0.047-0.040-0.103-0.053-0.168-0.011-0.068-0.019-0.152-0.025-0.25s-0.008-0.221-0.008-0.369 0.003-0.269 0.008-0.365c0.005-0.098 0.014-0.18 0.025-0.246 0.014-0.068 0.031-0.124 0.053-0.168 0.025-0.046 0.055-0.089 0.090-0.127 0.052-0.055 0.115-0.098 0.189-0.131s0.154-0.049 0.242-0.049c0.164 0 0.298 0.045 0.402 0.135 0.104 0.087 0.175 0.212 0.213 0.373h0.447c-0.022-0.126-0.060-0.243-0.115-0.353s-0.127-0.205-0.217-0.287c-0.087-0.082-0.193-0.146-0.316-0.193-0.12-0.049-0.258-0.074-0.414-0.074s-0.298 0.027-0.426 0.082c-0.126 0.052-0.239 0.128-0.34 0.23-0.071 0.071-0.126 0.146-0.164 0.226s-0.067 0.165-0.086 0.258c-0.016 0.093-0.026 0.197-0.029 0.312-0.003 0.112-0.004 0.238-0.004 0.377s0.001 0.267 0.004 0.381c0.003 0.112 0.012 0.215 0.029 0.308 0.019 0.093 0.048 0.179 0.086 0.258s0.093 0.154 0.164 0.226c0.101 0.101 0.216 0.179 0.344 0.234 0.129 0.052 0.269 0.078 0.422 0.078 0.156 0 0.301-0.026 0.435-0.078s0.257-0.137 0.369-0.254c0.096-0.104 0.163-0.22 0.201-0.349 0.041-0.128 0.061-0.287 0.061-0.476z"></path>
<path d="M14.175 31.539v-0.398h-1.406v-2.522h-0.443v2.919h1.849z"></path>
<path d="M16.992 31.539l-1.070-2.919h-0.357l-1.070 2.919h0.471l0.201-0.586h1.152l0.201 0.586h0.471zM16.197 30.576h-0.898l0.455-1.296 0.443 1.296z"></path>
<path d="M19.395 30.707c0-0.126-0.020-0.239-0.061-0.34-0.038-0.101-0.097-0.187-0.176-0.258-0.063-0.055-0.135-0.098-0.217-0.131-0.082-0.036-0.191-0.064-0.328-0.086l-0.332-0.049c-0.142-0.022-0.251-0.067-0.328-0.135-0.038-0.036-0.067-0.075-0.086-0.119-0.016-0.046-0.025-0.097-0.025-0.152 0-0.131 0.045-0.239 0.135-0.324 0.093-0.087 0.226-0.131 0.398-0.131 0.123 0 0.236 0.016 0.34 0.049 0.107 0.030 0.205 0.089 0.295 0.176l0.283-0.279c-0.126-0.118-0.26-0.202-0.402-0.254s-0.31-0.078-0.504-0.078c-0.153 0-0.29 0.020-0.41 0.061s-0.223 0.1-0.308 0.176c-0.082 0.076-0.146 0.168-0.193 0.275-0.044 0.104-0.066 0.219-0.066 0.344 0 0.238 0.071 0.424 0.213 0.558 0.131 0.123 0.316 0.201 0.553 0.234l0.344 0.049c0.087 0.014 0.153 0.029 0.197 0.045s0.085 0.042 0.123 0.078c0.076 0.068 0.115 0.169 0.115 0.303 0 0.142-0.053 0.253-0.16 0.332-0.104 0.076-0.252 0.115-0.443 0.115-0.15 0-0.286-0.019-0.406-0.057-0.12-0.041-0.234-0.115-0.34-0.221l-0.295 0.291c0.139 0.142 0.291 0.242 0.455 0.299s0.357 0.086 0.578 0.086c0.153 0 0.294-0.019 0.422-0.057s0.239-0.094 0.332-0.168c0.093-0.074 0.165-0.164 0.217-0.271s0.078-0.227 0.078-0.361z"></path>
<path d="M21.937 30.707c0-0.126-0.020-0.239-0.061-0.34-0.038-0.101-0.097-0.187-0.176-0.258-0.063-0.055-0.135-0.098-0.217-0.131-0.082-0.036-0.191-0.064-0.328-0.086l-0.332-0.049c-0.142-0.022-0.252-0.067-0.328-0.135-0.038-0.036-0.067-0.075-0.086-0.119-0.016-0.046-0.025-0.097-0.025-0.152 0-0.131 0.045-0.239 0.135-0.324 0.093-0.087 0.226-0.131 0.398-0.131 0.123 0 0.236 0.016 0.34 0.049 0.107 0.030 0.205 0.089 0.295 0.176l0.283-0.279c-0.126-0.118-0.26-0.202-0.402-0.254s-0.31-0.078-0.504-0.078c-0.153 0-0.29 0.020-0.41 0.061s-0.223 0.1-0.308 0.176c-0.082 0.076-0.146 0.168-0.193 0.275-0.044 0.104-0.066 0.219-0.066 0.344 0 0.238 0.071 0.424 0.213 0.558 0.131 0.123 0.316 0.201 0.553 0.234l0.344 0.049c0.087 0.014 0.153 0.029 0.197 0.045s0.085 0.042 0.123 0.078c0.077 0.068 0.115 0.169 0.115 0.303 0 0.142-0.053 0.253-0.16 0.332-0.104 0.076-0.252 0.115-0.443 0.115-0.15 0-0.286-0.019-0.406-0.057-0.12-0.041-0.234-0.115-0.34-0.221l-0.295 0.291c0.139 0.142 0.291 0.242 0.455 0.299s0.357 0.086 0.578 0.086c0.153 0 0.294-0.019 0.422-0.057s0.239-0.094 0.332-0.168c0.093-0.074 0.165-0.164 0.217-0.271s0.078-0.227 0.078-0.361z"></path>
<path d="M25.915 31.539v-2.919h-0.443v1.246h-1.185v-1.246h-0.443v2.919h0.443v-1.275h1.185v1.275h0.443z"></path>
<path d="M28.893 30.555v-1.935h-0.443v1.915c0 0.197-0.056 0.351-0.168 0.463-0.109 0.112-0.256 0.168-0.439 0.168s-0.329-0.056-0.439-0.168c-0.109-0.112-0.164-0.267-0.164-0.463v-1.915h-0.443v1.935c0 0.15 0.026 0.288 0.078 0.414 0.055 0.123 0.128 0.228 0.221 0.316s0.204 0.156 0.332 0.205c0.128 0.049 0.267 0.074 0.414 0.074s0.286-0.025 0.414-0.074c0.128-0.049 0.239-0.118 0.332-0.205 0.096-0.087 0.169-0.193 0.221-0.316 0.055-0.126 0.082-0.264 0.082-0.414z"></path>
<path d="M31.566 29.018v-0.398h-2.050v0.398h0.804v2.522h0.443v-2.522h0.804z"></path>
<path d="M34.057 30.707c0-0.126-0.020-0.239-0.062-0.34-0.038-0.101-0.097-0.187-0.176-0.258-0.063-0.055-0.135-0.098-0.217-0.131-0.082-0.036-0.191-0.064-0.328-0.086l-0.332-0.049c-0.142-0.022-0.251-0.067-0.328-0.135-0.038-0.036-0.067-0.075-0.086-0.119-0.016-0.046-0.025-0.097-0.025-0.152 0-0.131 0.045-0.239 0.135-0.324 0.093-0.087 0.225-0.131 0.398-0.131 0.123 0 0.236 0.016 0.34 0.049 0.107 0.030 0.205 0.089 0.295 0.176l0.283-0.279c-0.126-0.118-0.26-0.202-0.402-0.254s-0.31-0.078-0.504-0.078c-0.153 0-0.29 0.020-0.41 0.061s-0.223 0.1-0.308 0.176c-0.082 0.076-0.146 0.168-0.193 0.275-0.044 0.104-0.066 0.219-0.066 0.344 0 0.238 0.071 0.424 0.213 0.558 0.131 0.123 0.316 0.201 0.553 0.234l0.344 0.049c0.087 0.014 0.153 0.029 0.197 0.045s0.085 0.042 0.123 0.078c0.077 0.068 0.115 0.169 0.115 0.303 0 0.142-0.053 0.253-0.16 0.332-0.104 0.076-0.251 0.115-0.443 0.115-0.15 0-0.286-0.019-0.406-0.057-0.12-0.041-0.234-0.115-0.34-0.221l-0.295 0.291c0.139 0.142 0.291 0.242 0.455 0.299s0.357 0.086 0.578 0.086c0.153 0 0.294-0.019 0.422-0.057s0.239-0.094 0.332-0.168c0.093-0.074 0.165-0.164 0.217-0.271s0.078-0.227 0.078-0.361z"></path>
<path d="M18.292 21.888l15.395 2.336v-13.835l-15.724-7.954-9.771-2.027-7.81 6.329v17.080l17.911-1.928zM0.003 24.237v-17.682l8.089-6.555 9.996 2.074 15.977 8.082v14.508l-15.781-2.394-18.281 1.968z"></path>
<path d="M32.335 11.738l-3.154 3.28-0.273-0.262 3.154-3.28 0.273 0.262z"></path>
<path d="M23.609 15.872l2.775 2.145-0.231 0.299-2.775-2.145 0.231-0.3z"></path>
<path d="M28.794 23.844v-19.87h0.378v19.87h-0.378z"></path>
<path d="M26.043 13.004v-12.499h0.378v12.499h-0.378z"></path>
<path d="M26.043 26.619v-14.95h0.378v14.95h-0.378z"></path>
<path d="M32.703 13.562h-2.145v-0.378h2.145v0.378z"></path>
<path d="M7.951 23.15v-22.897h0.378v22.897h-0.378z"></path>
<path d="M17.917 22.14v-19.87h0.378v19.87h-0.378z"></path>
</symbol>
</defs>
</svg>
