<svg aria-hidden="true" style="position: absolute; width: 0; height: 0; overflow: hidden;" version="1.1" xmlns="http://www.w3.org/2000/svg" xmlns:xlink="http://www.w3.org/1999/xlink">
<defs>
<symbol id="icon-bank" viewBox="0 0 32 32">
<path fill="#e9ece0" style="fill: var(--color1, #e9ece0)" d="M5.853 22.202c0.334-0.167 0.982-0.49 0.982-1.641 0-0.826-0.502-2.055-2.467-2.055h-3.893v8.013h3.393c1.641 0 2.076-0.279 2.533-0.728 0.422-0.41 0.69-1.015 0.69-1.648 0-0.793-0.256-1.574-1.238-1.941zM2.083 19.893h1.92c0.758 0 1.227 0.2 1.227 0.858 0 0.638-0.523 0.894-1.184 0.894h-1.963v-1.752zM4.134 25.135h-2.051v-2.143h2.131c0.604 0 1.205 0.271 1.205 0.971-0.002 0.813-0.471 1.172-1.285 1.172z"></path>
<path fill="#e9ece0" style="fill: var(--color1, #e9ece0)" d="M0.476 27.788v0.728h1.24v3.377h0.855v-3.377h1.243v-0.728h-3.338z"></path>
<path fill="#e9ece0" style="fill: var(--color1, #e9ece0)" d="M28.066 21.787l3.27-3.282h-2.164l-3.058 3.257v-3.257h-1.674v8.011h1.674v-2.711l0.781-0.804 2.476 3.515h2.154l-3.459-4.729z"></path>
<path fill="#e9ece0" style="fill: var(--color1, #e9ece0)" d="M12.361 18.505h-1.93l-2.854 8.012h1.762l0.557-1.65h2.957l0.514 1.649h1.818l-2.824-8.011zM10.342 23.481l1.027-3.168h0.023l0.992 3.168h-2.042z"></path>
<path fill="#e9ece0" style="fill: var(--color1, #e9ece0)" d="M19.829 2.805c-0.502-0.593-1.055-1.146-1.705-1.625-0.322-0.242-0.666-0.465-1.043-0.665-0.38-0.196-0.769-0.385-1.234-0.515 0.008 0.483 0.092 0.908 0.191 1.324 0.094 0.404 0.221 0.783 0.369 1.147-0.354 0.104-0.784 0.25-1.268 0.438-0.313 0.14-0.656 0.266-1.002 0.453-0.351 0.168-0.707 0.372-1.068 0.6-0.367 0.207-0.709 0.501-1.068 0.755-0.327 0.311-0.686 0.58-0.977 0.933-0.301 0.338-0.595 0.676-0.822 1.060-0.115 0.187-0.248 0.36-0.344 0.551-0.092 0.194-0.18 0.387-0.266 0.575-0.195 0.364-0.284 0.756-0.386 1.113-0.121 0.354-0.164 0.701-0.197 1.021-0.027 0.319-0.094 0.601-0.078 0.861 0.008 0.256 0.014 0.478 0.020 0.662 0.011 0.363 0.014 0.57 0.014 0.57s0.039-0.205 0.105-0.562c0.033-0.177 0.074-0.39 0.121-0.636 0.037-0.245 0.164-0.505 0.252-0.792 0.094-0.287 0.203-0.593 0.383-0.887 0.164-0.299 0.313-0.622 0.555-0.901 0.109-0.143 0.221-0.291 0.332-0.438 0.117-0.143 0.267-0.266 0.396-0.4 0.254-0.277 0.564-0.501 0.871-0.723 0.293-0.233 0.65-0.39 0.959-0.581 0.352-0.141 0.662-0.317 1.008-0.419 0.33-0.12 0.655-0.221 0.973-0.293 0.309-0.090 0.62-0.13 0.891-0.188 0.174-0.025 0.334-0.046 0.488-0.065-0.018 0.046-0.037 0.090-0.053 0.137-0.158 0.433-0.281 0.888-0.367 1.367-0.039 0.243-0.071 0.489-0.096 0.74-0.020 0.255-0.024 0.519-0.006 0.797 0.261-0.1 0.498-0.213 0.723-0.336 0.217-0.127 0.43-0.259 0.633-0.395 0.403-0.277 0.766-0.578 1.094-0.9 0.664-0.642 1.213-1.359 1.674-2.13l0.059-0.098c0.283-0.479 0.25-1.106-0.131-1.555z"></path>
<path fill="#e9ece0" style="fill: var(--color1, #e9ece0)" d="M7.578 30.965c0-0.766-0.184-0.892-0.521-1.040 0.406-0.137 0.635-0.524 0.635-0.979 0-0.354-0.199-1.159-1.291-1.159h-2.076v4.103h0.842v-1.605h0.885c0.635 0 0.67 0.218 0.67 0.776 0 0.422 0.033 0.636 0.090 0.828h0.949v-0.107c-0.183-0.068-0.183-0.218-0.183-0.817zM6.169 29.596h-1.003v-1.1h1.068c0.502 0 0.6 0.318 0.6 0.537-0.001 0.404-0.217 0.563-0.665 0.563z"></path>
<path fill="#e9ece0" style="fill: var(--color1, #e9ece0)" d="M23.339 28.516v-0.728h-2.92v4.106h0.858v-1.726h1.806v-0.726h-1.806v-0.926h2.062z"></path>
<path fill="#e9ece0" style="fill: var(--color1, #e9ece0)" d="M24.755 31.165v-1.060h2v-0.726h-2v-0.862h2.179v-0.727h-3.019v4.103h3.115v-0.728h-2.275z"></path>
<path fill="#e9ece0" style="fill: var(--color1, #e9ece0)" d="M18.691 29.553l-0.998-0.246c-0.172-0.041-0.436-0.11-0.436-0.43 0-0.371 0.391-0.49 0.715-0.49 0.75 0 0.819 0.433 0.842 0.616h0.82c-0.006-0.503-0.342-1.325-1.6-1.325-1.332 0-1.577 0.805-1.577 1.262 0 0.904 0.639 1.055 1.303 1.207l0.439 0.104c0.433 0.105 0.743 0.189 0.743 0.511 0 0.429-0.453 0.529-0.856 0.529-0.75 0-0.865-0.434-0.871-0.663h-0.82c0 0.511 0.255 1.372 1.753 1.372 0.358 0 1.617-0.112 1.617-1.343-0.001-0.737-0.515-0.968-1.074-1.104z"></path>
<path fill="#e9ece0" style="fill: var(--color1, #e9ece0)" d="M30.982 30.965c0-0.766-0.186-0.892-0.521-1.040 0.404-0.137 0.637-0.524 0.637-0.979 0-0.354-0.201-1.159-1.293-1.159h-2.074v4.103h0.842v-1.605h0.885c0.633 0 0.67 0.218 0.67 0.776 0 0.422 0.033 0.636 0.091 0.828h0.946v-0.107c-0.183-0.068-0.183-0.218-0.183-0.817zM29.576 29.596h-1.004v-1.1h1.066c0.504 0 0.602 0.318 0.602 0.537 0 0.404-0.217 0.563-0.664 0.563z"></path>
<path fill="#e9ece0" style="fill: var(--color1, #e9ece0)" d="M21.145 18.508v5.578h-0.021l-3.181-5.578h-1.763v8.012h1.562l0.002-5.712h0.021l3.27 5.713h1.672v-8.013h-1.562z"></path>
<path fill="#e9ece0" style="fill: var(--color1, #e9ece0)" d="M10.474 27.788h-0.991l-1.463 4.103h0.904l0.285-0.847h1.514l0.264 0.847h0.932l-1.445-4.103zM9.439 30.336l0.527-1.622h0.008l0.512 1.622h-1.047z"></path>
<path fill="#e9ece0" style="fill: var(--color1, #e9ece0)" d="M14.976 27.788l-0.001 2.856h-0.010l-1.631-2.856h-0.902v4.103h0.799v-2.927h0.013l1.674 2.927h0.859v-4.103h-0.801z"></path>
<path fill="#e9ece0" style="fill: var(--color1, #e9ece0)" d="M21.957 5.66c-0.019-0.362-0.035-0.568-0.035-0.568s-0.029 0.205-0.090 0.564c-0.029 0.177-0.062 0.392-0.101 0.639-0.030 0.246-0.149 0.509-0.229 0.799-0.083 0.29-0.182 0.598-0.354 0.898-0.154 0.304-0.293 0.63-0.527 0.917-0.104 0.147-0.211 0.297-0.317 0.449-0.115 0.145-0.259 0.273-0.388 0.411-0.244 0.283-0.547 0.518-0.848 0.748-0.283 0.242-0.637 0.408-0.941 0.609-0.346 0.151-0.651 0.337-0.994 0.448-0.325 0.131-0.648 0.241-0.964 0.322-0.305 0.1-0.613 0.149-0.883 0.214-0.173 0.031-0.334 0.057-0.486 0.080 0.014-0.047 0.033-0.091 0.049-0.138 0.144-0.439 0.254-0.897 0.326-1.378 0.031-0.244 0.054-0.491 0.072-0.743 0.013-0.255 0.009-0.52-0.016-0.796-0.258 0.106-0.492 0.227-0.713 0.357-0.215 0.133-0.42 0.271-0.621 0.413-0.392 0.289-0.746 0.6-1.064 0.933-0.644 0.661-1.171 1.394-1.609 2.179l-0.057 0.098c-0.269 0.488-0.217 1.113 0.178 1.551 0.52 0.577 1.090 1.114 1.752 1.573 0.328 0.233 0.679 0.445 1.064 0.633 0.383 0.186 0.777 0.364 1.248 0.479-0.025-0.481-0.123-0.903-0.23-1.316-0.107-0.401-0.244-0.777-0.404-1.136 0.352-0.115 0.775-0.273 1.254-0.475 0.308-0.148 0.647-0.286 0.988-0.483 0.344-0.177 0.696-0.392 1.045-0.631 0.36-0.218 0.694-0.522 1.047-0.787 0.317-0.319 0.668-0.601 0.949-0.961 0.291-0.347 0.573-0.692 0.789-1.083 0.11-0.191 0.235-0.368 0.327-0.562 0.084-0.197 0.168-0.392 0.248-0.583 0.184-0.37 0.262-0.765 0.354-1.124 0.108-0.356 0.144-0.705 0.166-1.025 0.021-0.319 0.076-0.604 0.054-0.863-0.017-0.255-0.029-0.478-0.039-0.662z"></path>
</symbol>
<symbol id="icon-mastercard" viewBox="0 0 32 32">
<path fill="#e9ece0" style="fill: var(--color1, #e9ece0)" d="M22.422 6.42c-2.472 0.001-4.725 0.938-6.423 2.477-1.7-1.537-3.951-2.475-6.421-2.475-0.020 0-0.042 0-0.061 0-5.258 0.034-9.516 4.312-9.516 9.578 0 5.287 4.291 9.577 9.577 9.577 2.469 0 4.721-0.936 6.42-2.475-0.355-0.321-0.676-0.675-0.979-1.047h1.978c-0.298 0.365-0.623 0.708-0.973 1.026h-0.001c-0.008 0.009-0.017 0.014-0.024 0.021 1.7 1.539 3.955 2.478 6.428 2.477 5.29-0.002 9.576-4.292 9.575-9.581 0-0.002 0-0.003 0-0.005 0.001-5.289-4.288-9.577-9.578-9.575zM15.128 9.886h1.82c0.268 0.325 0.517 0.667 0.743 1.026h-3.248c0.209-0.342 0.439-0.694 0.684-1.026zM13.878 11.917h4.366c0.155 0.332 0.293 0.675 0.413 1.026h-5.296c0.053-0.099 0.238-0.498 0.517-1.026zM3.91 18.439l0.581-3.662-1.31 3.662h-0.702l-0.091-3.662-0.621 3.662h-0.984l0.815-4.857h1.488l0.052 2.98 1.005-2.98h1.614l-0.804 4.857h-1.043zM7.389 18.432l0.034-0.388c-0.016 0.002-0.326 0.468-1.046 0.468-0.377 0-0.985-0.206-0.985-1.099 0-1.136 0.926-1.513 1.809-1.513 0.139 0 0.438 0.025 0.438 0.025s0.034-0.069 0.034-0.257c0-0.309-0.278-0.351-0.657-0.351-0.669 0-1.111 0.179-1.111 0.179l0.148-0.879c0 0 0.537-0.225 1.235-0.225 0.361 0 1.401 0.038 1.401 1.23l-0.4 2.808h-0.898zM11.184 17.194c0 1.355-1.313 1.297-1.542 1.297-0.856 0-1.12-0.118-1.144-0.125l0.136-0.892c0.001-0.008 0.429 0.155 0.906 0.155 0.275 0 0.632-0.027 0.632-0.356 0-0.492-1.277-0.374-1.277-1.542 0-1.030 0.765-1.331 1.52-1.331 0.583 0 0.941 0.080 0.941 0.080l-0.129 0.9c0 0-0.553-0.046-0.696-0.046-0.363 0-0.56 0.079-0.56 0.333-0.001 0.51 1.214 0.26 1.214 1.526zM12.76 17.55c0.091 0 0.193-0.031 0.263-0.031l-0.128 0.866c-0.102 0.028-0.393 0.131-0.765 0.134-0.475 0.004-0.813-0.262-0.813-0.864 0-0.404 0.579-3.737 0.602-3.758h1.020l-0.104 0.596h0.509l-0.13 0.96h-0.54l-0.287 1.769c-0.022 0.141 0.017 0.328 0.372 0.328zM15.003 14.38c1.119 0 1.454 0.819 1.454 1.491 0 0.269-0.135 0.93-0.135 0.93h-2.072c0 0-0.192 0.816 0.903 0.816 0.513 0 1.083-0.251 1.083-0.251l-0.18 0.983c0 0-0.329 0.168-1.077 0.168-0.811 0-1.762-0.343-1.762-1.783 0.001-1.248 0.759-2.353 1.785-2.353zM17.703 21.069h-3.398c-0.207-0.33-0.4-0.669-0.566-1.026h4.522c-0.166 0.354-0.353 0.697-0.558 1.026zM17.476 18.447h-1.047l0.636-3.953h0.95l-0.091 0.573c0 0 0.338-0.623 0.795-0.623 0.133 0 0.197 0.013 0.197 0.013-0.135 0.276-0.255 0.529-0.379 1.183-0.708-0.251-0.763 1.119-1.061 2.807zM21.463 18.385c0 0-0.548 0.14-0.892 0.14-1.217 0-1.835-0.84-1.835-2.112 0-1.918 1.145-2.94 2.322-2.94 0.532 0 1.148 0.25 1.148 0.25l-0.166 1.080c0 0-0.417-0.291-0.936-0.291-0.694 0-1.316 0.662-1.316 1.865 0 0.593 0.29 1.145 1.014 1.145 0.344 0 0.843-0.25 0.843-0.25l-0.182 1.113zM23.918 18.433l0.034-0.39c-0.017 0.002-0.327 0.468-1.046 0.468-0.377 0-0.985-0.206-0.985-1.099 0-1.136 0.926-1.513 1.808-1.513 0.139 0 0.439 0.025 0.439 0.025s0.034-0.069 0.034-0.256c0-0.309-0.278-0.351-0.658-0.351-0.669 0-1.111 0.179-1.111 0.179l0.148-0.879c0 0 0.537-0.225 1.236-0.225 0.361 0 1.401 0.038 1.4 1.23l-0.4 2.808c-0.001 0.002-0.899 0.002-0.899 0.002zM26.037 18.447h-1.047l0.636-3.953h0.95l-0.091 0.573c0 0 0.339-0.623 0.796-0.623 0.133 0 0.196 0.013 0.196 0.013-0.135 0.276-0.256 0.529-0.379 1.183-0.709-0.251-0.763 1.119-1.061 2.807zM29.162 18.436l0.044-0.364c0 0-0.338 0.427-0.95 0.427-0.848 0-1.263-0.819-1.263-1.655 0-1.294 0.778-2.422 1.713-2.422 0.601 0.001 0.985 0.532 0.985 0.532l0.221-1.364 1.022-0.002-0.78 4.849h-0.992zM31.179 18.299c-0.027 0.049-0.065 0.087-0.114 0.116-0.048 0.027-0.1 0.041-0.154 0.041-0.053 0-0.104-0.014-0.153-0.041-0.049-0.029-0.087-0.067-0.114-0.116s-0.041-0.1-0.041-0.153c0-0.054 0.014-0.106 0.041-0.155s0.067-0.089 0.116-0.115c0.050-0.027 0.1-0.041 0.151-0.041 0.053 0 0.103 0.014 0.152 0.041 0.050 0.027 0.089 0.065 0.116 0.115s0.041 0.101 0.041 0.155c0 0.053-0.013 0.104-0.041 0.153z"></path>
<path fill="#e9ece0" style="fill: var(--color1, #e9ece0)" d="M31.097 21.222c-0.007-0.005-0.012-0.012-0.023-0.016s-0.027-0.006-0.053-0.006h-0.062v0.099h0.066c0.031 0 0.052-0.003 0.063-0.014 0.011-0.009 0.017-0.020 0.017-0.036 0-0.011-0.003-0.018-0.008-0.027z"></path>
<path fill="#e9ece0" style="fill: var(--color1, #e9ece0)" d="M31.31 21.163c-0.028-0.052-0.067-0.088-0.117-0.115s-0.1-0.041-0.151-0.041c-0.053 0-0.103 0.014-0.152 0.041s-0.089 0.065-0.116 0.115c-0.028 0.049-0.041 0.1-0.041 0.153s0.014 0.105 0.041 0.153c0.028 0.049 0.067 0.089 0.115 0.116s0.1 0.041 0.155 0.041c0.053 0 0.104-0.014 0.153-0.041s0.087-0.067 0.114-0.116c0.028-0.048 0.041-0.1 0.041-0.153s-0.014-0.105-0.041-0.153zM31.12 21.488l-0.029-0.052c-0.023-0.041-0.042-0.068-0.057-0.079-0.009-0.007-0.024-0.012-0.042-0.012h-0.031v0.142h-0.054v-0.334h0.115c0.040 0 0.068 0.003 0.084 0.010 0.018 0.007 0.033 0.016 0.042 0.032 0.011 0.015 0.015 0.032 0.015 0.049 0 0.024-0.009 0.045-0.026 0.064-0.017 0.017-0.041 0.028-0.069 0.030 0.012 0.004 0.021 0.011 0.028 0.018 0.014 0.013 0.030 0.035 0.050 0.065l0.041 0.065h-0.067z"></path>
<path fill="#e9ece0" style="fill: var(--color1, #e9ece0)" d="M7.283 16.659c-0.747 0-0.899 0.336-0.899 0.615 0 0.144 0.083 0.385 0.399 0.385 0.614 0 0.741-0.805 0.722-0.976-0.029-0.006-0.048-0.023-0.222-0.024z"></path>
<path fill="#e9ece0" style="fill: var(--color1, #e9ece0)" d="M15.007 15.293c-0.556 0-0.663 0.632-0.663 0.699h1.132c0-0.051 0.106-0.699-0.469-0.699z"></path>
<path fill="#e9ece0" style="fill: var(--color1, #e9ece0)" d="M28.882 15.403c-0.449 0-0.803 0.521-0.803 1.312 0 0.482 0.172 0.792 0.539 0.792 0.552 0 0.819-0.721 0.819-1.258 0-0.593-0.188-0.845-0.555-0.845z"></path>
<path fill="#e9ece0" style="fill: var(--color1, #e9ece0)" d="M31.132 18.018c-0.023-0.041-0.055-0.073-0.096-0.096s-0.083-0.034-0.126-0.034c-0.042 0-0.085 0.012-0.126 0.034-0.041 0.021-0.073 0.054-0.096 0.096s-0.035 0.086-0.035 0.129c0 0.044 0.012 0.088 0.034 0.128 0.024 0.041 0.055 0.072 0.096 0.096 0.041 0.023 0.083 0.036 0.128 0.036s0.088-0.013 0.127-0.036c0.041-0.023 0.073-0.055 0.096-0.096s0.034-0.084 0.034-0.128c0-0.044-0.012-0.087-0.035-0.129zM30.989 18.316l-0.030-0.051c-0.023-0.042-0.042-0.068-0.056-0.078-0.011-0.009-0.024-0.012-0.044-0.012h-0.030v0.141h-0.055v-0.333h0.116c0.039 0 0.068 0.003 0.085 0.011 0.017 0.006 0.031 0.017 0.042 0.032s0.015 0.031 0.015 0.049c0 0.024-0.009 0.045-0.026 0.063s-0.041 0.027-0.069 0.031c0.013 0.005 0.022 0.011 0.028 0.017 0.014 0.014 0.030 0.034 0.049 0.065l0.041 0.066c0 0-0.066 0-0.066 0z"></path>
<path fill="#e9ece0" style="fill: var(--color1, #e9ece0)" d="M23.814 16.659c-0.747 0-0.899 0.336-0.899 0.615 0 0.144 0.082 0.385 0.399 0.385 0.614 0 0.741-0.805 0.721-0.976-0.030-0.006-0.048-0.023-0.222-0.024z"></path>
<path fill="#e9ece0" style="fill: var(--color1, #e9ece0)" d="M30.967 18.051c-0.005-0.007-0.013-0.012-0.022-0.016-0.011-0.003-0.028-0.007-0.054-0.007v0.001h-0.060v0.101h0.065c0.031 0 0.052-0.004 0.064-0.014 0.010-0.010 0.016-0.023 0.016-0.037 0-0.011-0.003-0.018-0.009-0.027z"></path>
</symbol>
<symbol id="icon-paypal" viewBox="0 0 32 32">
<path fill="#e9ece0" style="fill: var(--color1, #e9ece0)" d="M5.735 13.080c-0.105-0.21-0.27-0.383-0.476-0.514-0.215-0.131-0.468-0.223-0.757-0.278-0.295-0.053-0.635-0.077-1.029-0.081l-1.82 0.001c-0.189 0.003-0.375 0.15-0.419 0.333l-1.225 5.334c-0.044 0.18 0.074 0.331 0.263 0.331h0.872c0.189 0 0.376-0.147 0.418-0.331l0.299-1.295c0.040-0.18 0.227-0.331 0.418-0.331h0.249c1.066-0.001 1.891-0.219 2.484-0.655 0.596-0.437 0.89-1.014 0.89-1.729-0.001-0.313-0.052-0.576-0.168-0.785zM3.856 14.822c-0.263 0.193-0.63 0.289-1.102 0.289h-0.213c-0.19 0-0.306-0.15-0.265-0.333l0.262-1.132c0.037-0.182 0.228-0.332 0.415-0.331l0.286-0.002c0.333 0 0.588 0.058 0.758 0.17 0.168 0.111 0.253 0.286 0.251 0.519 0.005 0.354-0.13 0.626-0.392 0.82z"></path>
<path fill="#e9ece0" style="fill: var(--color1, #e9ece0)" d="M30.582 12.624l-0.055 0.016-0.073 0.010-0.090-0.014-0.046-0.044-0.021-0.070-0.001-0.105v-0.388h0.291v-0.12h-0.291v-0.242h-0.144v0.242h-0.098v0.12h0.098v0.451l0.067 0.223 0.198 0.071 0.083-0.007 0.088-0.017v-0.128h-0.008z"></path>
<path fill="#e9ece0" style="fill: var(--color1, #e9ece0)" d="M31.933 11.972l-0.208-0.086-0.154 0.031-0.156 0.105-0.091-0.101-0.147-0.035-0.142 0.031-0.134 0.086v-0.094h-0.142v0.847h0.141v-0.633l0.119-0.074 0.118-0.029 0.096 0.017 0.048 0.049 0.021 0.081 0.007 0.105v0.484h0.142v-0.542l-0.003-0.045-0.003-0.041 0.121-0.077 0.119-0.030 0.093 0.017 0.051 0.049 0.018 0.082 0.010 0.104v0.484h0.142v-0.55l-0.067-0.237z"></path>
<path fill="#e9ece0" style="fill: var(--color1, #e9ece0)" d="M9.939 13.842c-0.329-0.185-0.848-0.278-1.558-0.278-0.351 0-0.701 0.027-1.054 0.082-0.261 0.040-0.286 0.048-0.447 0.083-0.331 0.072-0.383 0.403-0.383 0.403l-0.107 0.439c-0.060 0.28 0.101 0.269 0.168 0.246 0.145-0.043 0.225-0.088 0.521-0.154 0.282-0.064 0.58-0.112 0.816-0.109 0.349 0 0.615 0.037 0.793 0.112 0.175 0.076 0.263 0.207 0.263 0.396l-0.015 0.123-0.126 0.078c-0.494 0.031-0.852 0.077-1.285 0.14-0.424 0.059-0.796 0.162-1.105 0.304-0.332 0.146-0.578 0.342-0.75 0.592-0.166 0.251-0.249 0.555-0.249 0.912 0 0.336 0.121 0.613 0.355 0.828 0.236 0.211 0.547 0.314 0.919 0.314 0.235-0.001 0.418-0.020 0.547-0.051l0.422-0.145 0.357-0.198 0.329-0.217 0.004 0.006-0.033 0.14-0.002 0.006v0.001c-0.036 0.17 0.067 0.31 0.233 0.326l0.003 0.004h0.809l0.011-0.005c0.174-0.020 0.337-0.16 0.375-0.326l0.635-2.751 0.033-0.224 0.015-0.21c0.002-0.39-0.166-0.679-0.495-0.863zM8.533 16.935l-0.136 0.179-0.343 0.177c-0.161 0.065-0.314 0.098-0.456 0.098-0.215 0-0.383-0.031-0.496-0.095l-0.168-0.327c0-0.177 0.041-0.317 0.128-0.425l0.369-0.251c0.158-0.053 0.351-0.098 0.575-0.129 0.199-0.025 0.593-0.070 0.644-0.071l0.060 0.106c-0.012 0.060-0.124 0.528-0.177 0.738z"></path>
<path fill="#e9ece0" style="fill: var(--color1, #e9ece0)" d="M25.769 13.846c-0.331-0.185-0.849-0.279-1.557-0.279-0.351 0-0.702 0.027-1.054 0.084-0.262 0.038-0.288 0.046-0.449 0.081-0.331 0.072-0.382 0.404-0.382 0.404l-0.107 0.438c-0.060 0.28 0.098 0.267 0.171 0.246 0.145-0.043 0.223-0.086 0.517-0.154 0.281-0.064 0.581-0.111 0.818-0.109 0.347 0 0.614 0.037 0.791 0.112 0.176 0.076 0.263 0.208 0.263 0.396l-0.013 0.123-0.125 0.079c-0.5 0.030-0.858 0.075-1.287 0.138-0.423 0.059-0.796 0.162-1.106 0.304-0.331 0.147-0.58 0.343-0.75 0.593-0.168 0.251-0.25 0.554-0.25 0.908 0 0.338 0.119 0.616 0.357 0.829 0.237 0.21 0.545 0.316 0.917 0.316 0.234-0.003 0.416-0.018 0.547-0.051l0.421-0.144 0.361-0.198 0.326-0.22 0.006 0.007-0.030 0.141-0.003 0.003 0.001 0.002c-0.039 0.17 0.064 0.311 0.232 0.326l0.001 0.003h0.015c0.11 0 0.489 0 0.67 0h0.123l0.013-0.005c0.172-0.021 0.335-0.161 0.371-0.329l0.637-2.747 0.034-0.225 0.018-0.211c0.001-0.388-0.166-0.676-0.498-0.861zM24.367 16.939l-0.142 0.181-0.34 0.176c-0.161 0.065-0.315 0.098-0.454 0.098-0.222 0-0.385-0.032-0.496-0.095l-0.17-0.326c0-0.178 0.041-0.317 0.124-0.427 0.084-0.104 0.213-0.189 0.373-0.251 0.156-0.053 0.349-0.097 0.574-0.129 0.198-0.025 0.59-0.071 0.641-0.072l0.062 0.106c-0.009 0.060-0.121 0.526-0.173 0.738z"></path>
<path fill="#e9ece0" style="fill: var(--color1, #e9ece0)" d="M21.564 13.099c-0.109-0.211-0.273-0.382-0.48-0.515-0.212-0.132-0.463-0.225-0.757-0.278-0.289-0.051-0.634-0.079-1.025-0.080l-1.822 0.001c-0.19 0.003-0.372 0.15-0.416 0.331l-1.226 5.336c-0.044 0.181 0.078 0.331 0.263 0.331l0.873-0.001c0.185 0.001 0.375-0.147 0.419-0.33l0.295-1.296c0.043-0.18 0.23-0.332 0.419-0.331h0.249c1.067 0 1.894-0.22 2.49-0.655 0.588-0.44 0.886-1.016 0.886-1.731-0.003-0.312-0.057-0.575-0.168-0.783zM19.684 14.844c-0.263 0.189-0.63 0.286-1.1 0.286h-0.217c-0.187 0.002-0.309-0.15-0.267-0.332l0.264-1.131c0.039-0.181 0.228-0.333 0.416-0.331l0.282-0.002c0.335 0.002 0.587 0.057 0.758 0.169s0.251 0.287 0.253 0.519c0.002 0.354-0.13 0.627-0.391 0.821z"></path>
<path fill="#e9ece0" style="fill: var(--color1, #e9ece0)" d="M29.037 12.601c0.040-0.182-0.074-0.33-0.262-0.328h-0.781c-0.16 0-0.304 0.119-0.375 0.265l-0.043 0.067-0.039 0.173-1.091 4.96-0.036 0.152 0.001 0.004c-0.036 0.163 0.064 0.286 0.219 0.31l0.013 0.018h0.811c0.159 0 0.308-0.121 0.376-0.269l0.042-0.063 1.167-5.289-0.003-0.001z"></path>
<path fill="#e9ece0" style="fill: var(--color1, #e9ece0)" d="M15.861 13.63c-0.206 0.003-1.045 0-1.045 0-0.188 0-0.429 0.152-0.548 0.333 0 0-1.248 2.142-1.369 2.357l-0.145-0.002-0.388-2.341c-0.043-0.184-0.236-0.342-0.475-0.342l-0.781 0.001c-0.188 0-0.303 0.15-0.261 0.333 0 0 0.593 3.374 0.712 4.168 0.055 0.438-0.007 0.516-0.007 0.516l-0.772 1.345c-0.114 0.183-0.053 0.332 0.135 0.332l0.903-0.001c0.188 0 0.435-0.148 0.547-0.331l3.472-5.873c0 0.001 0.334-0.502 0.024-0.495z"></path>
</symbol>
<symbol id="icon-visa" viewBox="0 0 32 32">
<path fill="#e9ece0" style="fill: var(--color1, #e9ece0)" d="M12.813 11.238l-1.626 9.544h2.601l1.628-9.544h-2.602z"></path>
<path fill="#e9ece0" style="fill: var(--color1, #e9ece0)" d="M9.006 11.249l-2.547 6.508-0.272-0.983c-0.502-1.184-1.929-2.885-3.603-3.956l2.329 7.959 2.752-0.005 4.096-9.526-2.756 0.002z"></path>
<path fill="#e9ece0" style="fill: var(--color1, #e9ece0)" d="M5.199 11.932c-0.151-0.581-0.589-0.755-1.133-0.775h-4.033l-0.033 0.19c3.138 0.761 5.215 2.596 6.076 4.801l-0.877-4.216z"></path>
<path fill="#e9ece0" style="fill: var(--color1, #e9ece0)" d="M20.687 13.068c0.851-0.013 1.468 0.173 1.947 0.365l0.235 0.11 0.352-2.068c-0.515-0.193-1.323-0.401-2.33-0.401-2.57 0-4.382 1.295-4.396 3.15-0.017 1.371 1.291 2.136 2.278 2.593 1.014 0.468 1.353 0.766 1.349 1.184-0.008 0.639-0.808 0.932-1.555 0.932-1.042 0-1.595-0.144-2.449-0.5l-0.335-0.153-0.366 2.136c0.609 0.267 1.732 0.496 2.898 0.508 2.734 0 4.511-1.279 4.53-3.261 0.011-1.084-0.682-1.912-2.186-2.591-0.91-0.443-1.466-0.737-1.461-1.184 0-0.397 0.472-0.821 1.491-0.821z"></path>
<path fill="#e9ece0" style="fill: var(--color1, #e9ece0)" d="M29.895 11.249h-2.010c-0.624 0-1.088 0.17-1.363 0.792l-3.862 8.746h2.731c0 0 0.446-1.176 0.547-1.434 0.299 0 2.953 0.004 3.331 0.004 0.078 0.333 0.317 1.43 0.317 1.43h2.413l-2.105-9.538zM26.688 17.4c0.214-0.548 1.036-2.667 1.036-2.667-0.014 0.026 0.212-0.552 0.347-0.911l0.175 0.823c0 0 0.498 2.279 0.603 2.756h-2.161z"></path>
</symbol>
</defs>
</svg>
