<svg aria-hidden="true" style="position: absolute; width: 0; height: 0; overflow: hidden;" version="1.1" xmlns="http://www.w3.org/2000/svg" xmlns:xlink="http://www.w3.org/1999/xlink">
<defs>
<symbol id="icon-twitter" viewBox="0 0 32 32">
<path d="M31.275 5.924c-0.503 0.223-1.020 0.411-1.548 0.564 0.625-0.707 1.102-1.539 1.393-2.45 0.065-0.204-0.002-0.427-0.17-0.561s-0.4-0.15-0.585-0.040c-1.122 0.665-2.332 1.143-3.6 1.423-1.278-1.249-3.014-1.96-4.808-1.96-3.788 0-6.87 3.082-6.87 6.869 0 0.298 0.019 0.595 0.056 0.888-4.7-0.413-9.070-2.723-12.071-6.404-0.107-0.131-0.272-0.202-0.44-0.188s-0.32 0.108-0.406 0.255c-0.609 1.044-0.93 2.239-0.93 3.454 0 1.655 0.591 3.226 1.635 4.453-0.317-0.11-0.625-0.247-0.919-0.411-0.158-0.088-0.35-0.086-0.507 0.003s-0.255 0.255-0.259 0.436c-0.001 0.030-0.001 0.061-0.001 0.092 0 2.471 1.33 4.695 3.363 5.908-0.175-0.017-0.349-0.043-0.523-0.076-0.179-0.034-0.363 0.029-0.483 0.165s-0.161 0.326-0.105 0.5c0.753 2.349 2.69 4.078 5.032 4.604-1.943 1.217-4.164 1.854-6.496 1.854-0.487 0-0.976-0.029-1.455-0.085-0.238-0.028-0.465 0.112-0.546 0.338s0.005 0.479 0.207 0.609c2.996 1.921 6.46 2.936 10.018 2.936 6.994 0 11.369-3.298 13.808-6.065 3.041-3.45 4.785-8.016 4.785-12.528 0-0.188-0.003-0.379-0.009-0.569 1.2-0.904 2.233-1.998 3.073-3.255 0.128-0.191 0.114-0.443-0.034-0.619s-0.394-0.233-0.604-0.14z"></path>
</symbol>
<symbol id="icon-facebook" viewBox="0 0 32 32">
<path d="M8.434 17.043h3.508v14.441c0 0.285 0.231 0.516 0.516 0.516h5.947c0.285 0 0.516-0.231 0.516-0.516v-14.373h4.032c0.262 0 0.483-0.197 0.513-0.457l0.612-5.316c0.017-0.146-0.030-0.293-0.127-0.402s-0.238-0.173-0.385-0.173h-4.645v-3.333c0-1.005 0.541-1.514 1.608-1.514 0.152 0 3.037 0 3.037 0 0.285 0 0.516-0.231 0.516-0.516v-4.88c0-0.285-0.231-0.516-0.516-0.516h-4.185c-0.030-0.001-0.095-0.004-0.192-0.004-0.726 0-3.25 0.143-5.244 1.977-2.209 2.033-1.902 4.467-1.829 4.889v3.897h-3.682c-0.285 0-0.516 0.231-0.516 0.516v5.248c0 0.285 0.231 0.516 0.516 0.516z"></path>
</symbol>
<symbol id="icon-instagram" viewBox="0 0 32 32">
<path d="M16.005 7.784c-4.537 0-8.211 3.677-8.211 8.211 0 4.537 3.677 8.211 8.211 8.211 4.537 0 8.211-3.677 8.211-8.211 0-4.537-3.677-8.211-8.211-8.211zM16.005 21.324c-2.945 0-5.329-2.385-5.329-5.329s2.385-5.329 5.329-5.329 5.329 2.385 5.329 5.329c0.001 2.944-2.384 5.329-5.329 5.329z"></path>
<path d="M22.598 0.101c-2.944-0.137-10.236-0.131-13.183 0-2.589 0.121-4.873 0.747-6.715 2.588-3.077 3.077-2.684 7.224-2.684 13.305 0 6.224-0.347 10.275 2.684 13.305 3.089 3.088 7.296 2.684 13.305 2.684 6.165 0 8.293 0.004 10.473-0.84 2.964-1.151 5.201-3.8 5.42-8.559 0.139-2.945 0.131-10.236 0-13.183-0.264-5.617-3.279-9.024-9.301-9.301zM27.257 27.264c-2.017 2.017-4.816 1.837-11.291 1.837-6.667 0-9.34 0.099-11.291-1.857-2.247-2.236-1.84-5.827-1.84-11.271 0-7.367-0.756-12.672 6.637-13.051 1.699-0.060 2.199-0.080 6.475-0.080l0.060 0.040c7.105 0 12.68-0.744 13.015 6.648 0.076 1.687 0.093 2.193 0.093 6.463-0.001 6.589 0.124 9.279-1.859 11.271z"></path>
<path d="M24.541 9.378c1.060 0 1.919-0.859 1.919-1.919s-0.859-1.919-1.919-1.919c-1.060 0-1.919 0.859-1.919 1.919s0.859 1.919 1.919 1.919z"></path>
</symbol>
</defs>
</svg>
